<svg id="visual" viewBox="0 0 800 480" width="800" height="480" xmlns="http://www.w3.org/2000/svg" xmlns:xlink="http://www.w3.org/1999/xlink" version="1.1"><rect x="0" y="0" width="800" height="480" fill="#FFFFFF"></rect><defs><linearGradient id="grad1_0" x1="40%" y1="0%" x2="100%" y2="100%"><stop offset="16.666666666666664%" stop-color="#fa3c3c" stop-opacity="1"></stop><stop offset="83.33333333333334%" stop-color="#fa3c3c" stop-opacity="1"></stop></linearGradient></defs><defs><linearGradient id="grad1_1" x1="40%" y1="0%" x2="100%" y2="100%"><stop offset="16.666666666666664%" stop-color="#fa3c3c" stop-opacity="1"></stop><stop offset="83.33333333333334%" stop-color="#ffa799" stop-opacity="1"></stop></linearGradient></defs><defs><linearGradient id="grad1_2" x1="40%" y1="0%" x2="100%" y2="100%"><stop offset="16.666666666666664%" stop-color="#ffffff" stop-opacity="1"></stop><stop offset="83.33333333333334%" stop-color="#ffa799" stop-opacity="1"></stop></linearGradient></defs><defs><linearGradient id="grad2_0" x1="0%" y1="0%" x2="60%" y2="100%"><stop offset="16.666666666666664%" stop-color="#fa3c3c" stop-opacity="1"></stop><stop offset="83.33333333333334%" stop-color="#fa3c3c" stop-opacity="1"></stop></linearGradient></defs><defs><linearGradient id="grad2_1" x1="0%" y1="0%" x2="60%" y2="100%"><stop offset="16.666666666666664%" stop-color="#ffa799" stop-opacity="1"></stop><stop offset="83.33333333333334%" stop-color="#fa3c3c" stop-opacity="1"></stop></linearGradient></defs><defs><linearGradient id="grad2_2" x1="0%" y1="0%" x2="60%" y2="100%"><stop offset="16.666666666666664%" stop-color="#ffa799" stop-opacity="1"></stop><stop offset="83.33333333333334%" stop-color="#ffffff" stop-opacity="1"></stop></linearGradient></defs><g transform="translate(800, 0)"><path d="M0 279.9C-28.2 274.5 -56.4 269.1 -85 261.5C-113.6 254 -142.5 244.4 -164.5 226.4C-186.5 208.5 -201.6 182.2 -216.8 157.5C-232 132.8 -247.2 109.7 -257.7 83.7C-268.3 57.8 -274.1 28.9 -279.9 0L0 0Z" fill="#ffd3cb"></path><path d="M0 186.6C-18.8 183 -37.6 179.4 -56.7 174.4C-75.7 169.3 -95 162.9 -109.7 151C-124.4 139 -134.4 121.5 -144.5 105C-154.7 88.6 -164.8 73.2 -171.8 55.8C-178.8 38.5 -182.7 19.3 -186.6 0L0 0Z" fill="#ff7769"></path><path d="M0 93.3C-9.4 91.5 -18.8 89.7 -28.3 87.2C-37.9 84.7 -47.5 81.5 -54.8 75.5C-62.2 69.5 -67.2 60.7 -72.3 52.5C-77.3 44.3 -82.4 36.6 -85.9 27.9C-89.4 19.3 -91.4 9.6 -93.3 0L0 0Z" fill="#fa3c3c"></path></g><g transform="translate(0, 480)"><path d="M0 -279.9C27.9 -271.6 55.9 -263.2 82.2 -253C108.5 -242.7 133.3 -230.5 156.4 -215.2C179.4 -199.9 200.8 -181.4 220.1 -159.9C239.3 -138.3 256.6 -113.7 266.2 -86.5C275.8 -59.3 277.9 -29.7 279.9 0L0 0Z" fill="#ffd3cb"></path><path d="M0 -186.6C18.6 -181 37.2 -175.5 54.8 -168.7C72.4 -161.8 88.9 -153.7 104.2 -143.5C119.6 -133.3 133.8 -121 146.7 -106.6C159.6 -92.2 171 -75.8 177.5 -57.7C183.9 -39.5 185.2 -19.8 186.6 0L0 0Z" fill="#ff7769"></path><path d="M0 -93.3C9.3 -90.5 18.6 -87.7 27.4 -84.3C36.2 -80.9 44.4 -76.8 52.1 -71.7C59.8 -66.6 66.9 -60.5 73.4 -53.3C79.8 -46.1 85.5 -37.9 88.7 -28.8C91.9 -19.8 92.6 -9.9 93.3 0L0 0Z" fill="#fa3c3c"></path></g></svg>