<svg id="visual" viewBox="0 0 800 480" width="800" height="480" xmlns="http://www.w3.org/2000/svg" xmlns:xlink="http://www.w3.org/1999/xlink" version="1.1"><g><g transform="translate(265 455)"><path d="M51 -60.8C66.9 -47.5 81.2 -32.1 83.6 -15.2C86 1.7 76.6 20.3 65.2 35.4C53.8 50.6 40.4 62.4 22.2 75C4.1 87.7 -18.8 101.2 -36.6 96.5C-54.3 91.8 -66.9 68.8 -75.1 47C-83.4 25.2 -87.3 4.6 -83.5 -14.3C-79.7 -33.2 -68.2 -50.4 -53 -63.9C-37.8 -77.4 -18.9 -87.2 -0.7 -86.4C17.6 -85.6 35.1 -74.2 51 -60.8Z" fill="#A8A89E"></path></g><g transform="translate(453 263)"><path d="M32.6 -38.6C42.1 -30.9 49.5 -20.4 53.9 -7.7C58.2 5 59.5 20.1 54.2 33.3C48.9 46.5 37.1 57.8 22.6 63.9C8.1 70 -9 70.8 -21.9 64.3C-34.9 57.9 -43.6 44.1 -49.5 30.3C-55.3 16.6 -58.2 2.9 -55.4 -9.2C-52.5 -21.2 -43.9 -31.7 -33.8 -39.3C-23.6 -47 -11.8 -51.8 -0.1 -51.6C11.5 -51.5 23.1 -46.4 32.6 -38.6Z" fill="#A8A89E"></path></g><g transform="translate(161 212)"><path d="M39.4 -47.7C53.5 -35.2 68.9 -25 73.7 -11C78.5 3 72.7 20.8 62 32.6C51.4 44.4 35.9 50.2 21.3 53.2C6.7 56.2 -7 56.4 -21.1 53.3C-35.3 50.2 -50 43.8 -60.3 31.9C-70.5 20.1 -76.4 2.8 -73.5 -12.8C-70.6 -28.5 -58.9 -42.4 -45.2 -55C-31.5 -67.6 -15.8 -78.9 -1.5 -77.1C12.7 -75.2 25.4 -60.3 39.4 -47.7Z" fill="#A8A89E"></path></g></g></svg>