<svg id="visual" viewBox="0 0 800 480" width="800" height="480" xmlns="http://www.w3.org/2000/svg" xmlns:xlink="http://www.w3.org/1999/xlink" version="1.1"><path d="M0 399L50 399L50 337L100 337L100 371L150 371L150 393L200 393L200 370L250 370L250 371L300 371L300 373L350 373L350 342L400 342L400 352L450 352L450 390L500 390L500 368L550 368L550 369L600 369L600 337L650 337L650 380L700 380L700 368L750 368L750 380L800 380L800 362L800 481L800 481L750 481L750 481L700 481L700 481L650 481L650 481L600 481L600 481L550 481L550 481L500 481L500 481L450 481L450 481L400 481L400 481L350 481L350 481L300 481L300 481L250 481L250 481L200 481L200 481L150 481L150 481L100 481L100 481L50 481L50 481L0 481Z" fill="#0066ff"></path><path d="M0 398L50 398L50 407L100 407L100 385L150 385L150 392L200 392L200 373L250 373L250 423L300 423L300 421L350 421L350 407L400 407L400 422L450 422L450 388L500 388L500 373L550 373L550 370L600 370L600 380L650 380L650 376L700 376L700 368L750 368L750 376L800 376L800 404L800 481L800 481L750 481L750 481L700 481L700 481L650 481L650 481L600 481L600 481L550 481L550 481L500 481L500 481L450 481L450 481L400 481L400 481L350 481L350 481L300 481L300 481L250 481L250 481L200 481L200 481L150 481L150 481L100 481L100 481L50 481L50 481L0 481Z" fill="#d231c8"></path><path d="M0 446L50 446L50 443L100 443L100 439L150 439L150 426L200 426L200 401L250 401L250 418L300 418L300 453L350 453L350 432L400 432L400 439L450 439L450 432L500 432L500 394L550 394L550 420L600 420L600 451L650 451L650 394L700 394L700 425L750 425L750 422L800 422L800 406L800 481L800 481L750 481L750 481L700 481L700 481L650 481L650 481L600 481L600 481L550 481L550 481L500 481L500 481L450 481L450 481L400 481L400 481L350 481L350 481L300 481L300 481L250 481L250 481L200 481L200 481L150 481L150 481L100 481L100 481L50 481L50 481L0 481Z" fill="#ff0075"></path><path d="M0 423L50 423L50 464L100 464L100 431L150 431L150 422L200 422L200 463L250 463L250 470L300 470L300 473L350 473L350 439L400 439L400 430L450 430L450 432L500 432L500 439L550 439L550 468L600 468L600 438L650 438L650 476L700 476L700 437L750 437L750 460L800 460L800 422L800 481L800 481L750 481L750 481L700 481L700 481L650 481L650 481L600 481L600 481L550 481L550 481L500 481L500 481L450 481L450 481L400 481L400 481L350 481L350 481L300 481L300 481L250 481L250 481L200 481L200 481L150 481L150 481L100 481L100 481L50 481L50 481L0 481Z" fill="#ff0800"></path></svg>