<svg id="visual" viewBox="0 0 800 480" width="800" height="480" xmlns="http://www.w3.org/2000/svg" xmlns:xlink="http://www.w3.org/1999/xlink" version="1.1"><path d="M536 480L534.2 464C532.3 448 528.7 416 523.2 384C517.7 352 510.3 320 513 288C515.7 256 528.3 224 540.8 192C553.3 160 565.7 128 567.8 96C570 64 562 32 558 16L554 0L800 0L800 16C800 32 800 64 800 96C800 128 800 160 800 192C800 224 800 256 800 288C800 320 800 352 800 384C800 416 800 448 800 464L800 480Z" fill="#c62368"></path><path d="M561 480L570.7 464C580.3 448 599.7 416 607.8 384C616 352 613 320 613.8 288C614.7 256 619.3 224 621 192C622.7 160 621.3 128 609.7 96C598 64 576 32 565 16L554 0L800 0L800 16C800 32 800 64 800 96C800 128 800 160 800 192C800 224 800 256 800 288C800 320 800 352 800 384C800 416 800 448 800 464L800 480Z" fill="#ce2e68"></path><path d="M622 480L622.7 464C623.3 448 624.7 416 626.8 384C629 352 632 320 627 288C622 256 609 224 603.5 192C598 160 600 128 596.2 96C592.3 64 582.7 32 577.8 16L573 0L800 0L800 16C800 32 800 64 800 96C800 128 800 160 800 192C800 224 800 256 800 288C800 320 800 352 800 384C800 416 800 448 800 464L800 480Z" fill="#d53867"></path><path d="M637 480L638 464C639 448 641 416 642 384C643 352 643 320 642 288C641 256 639 224 643.7 192C648.3 160 659.7 128 663.3 96C667 64 663 32 661 16L659 0L800 0L800 16C800 32 800 64 800 96C800 128 800 160 800 192C800 224 800 256 800 288C800 320 800 352 800 384C800 416 800 448 800 464L800 480Z" fill="#dc4267"></path><path d="M678 480L676 464C674 448 670 416 668 384C666 352 666 320 667.2 288C668.3 256 670.7 224 667.2 192C663.7 160 654.3 128 651 96C647.7 64 650.3 32 651.7 16L653 0L800 0L800 16C800 32 800 64 800 96C800 128 800 160 800 192C800 224 800 256 800 288C800 320 800 352 800 384C800 416 800 448 800 464L800 480Z" fill="#e34c67"></path><path d="M701 480L700.2 464C699.3 448 697.7 416 697.7 384C697.7 352 699.3 320 701 288C702.7 256 704.3 224 697 192C689.7 160 673.3 128 675.2 96C677 64 697 32 707 16L717 0L800 0L800 16C800 32 800 64 800 96C800 128 800 160 800 192C800 224 800 256 800 288C800 320 800 352 800 384C800 416 800 448 800 464L800 480Z" fill="#e95667"></path><path d="M740 480L740 464C740 448 740 416 737.7 384C735.3 352 730.7 320 730.2 288C729.7 256 733.3 224 727.7 192C722 160 707 128 701.7 96C696.3 64 700.7 32 702.8 16L705 0L800 0L800 16C800 32 800 64 800 96C800 128 800 160 800 192C800 224 800 256 800 288C800 320 800 352 800 384C800 416 800 448 800 464L800 480Z" fill="#ef5f67"></path><path d="M753 480L753.7 464C754.3 448 755.7 416 750.7 384C745.7 352 734.3 320 734.3 288C734.3 256 745.7 224 746.8 192C748 160 739 128 737.7 96C736.3 64 742.7 32 745.8 16L749 0L800 0L800 16C800 32 800 64 800 96C800 128 800 160 800 192C800 224 800 256 800 288C800 320 800 352 800 384C800 416 800 448 800 464L800 480Z" fill="#f56967"></path><path d="M748 480L752 464C756 448 764 416 764 384C764 352 756 320 753.2 288C750.3 256 752.7 224 757.8 192C763 160 771 128 773.5 96C776 64 773 32 771.5 16L770 0L800 0L800 16C800 32 800 64 800 96C800 128 800 160 800 192C800 224 800 256 800 288C800 320 800 352 800 384C800 416 800 448 800 464L800 480Z" fill="#fa7268"></path></svg>