<svg id="visual" viewBox="0 0 800 480" width="800" height="480" xmlns="http://www.w3.org/2000/svg" xmlns:xlink="http://www.w3.org/1999/xlink" version="1.1"><path d="M0 327L114 286L229 351L343 300L457 352L571 355L686 290L800 356L800 481L686 481L571 481L457 481L343 481L229 481L114 481L0 481Z" fill="#f5730a"></path><path d="M0 364L114 359L229 323L343 365L457 333L571 377L686 371L800 345L800 481L686 481L571 481L457 481L343 481L229 481L114 481L0 481Z" fill="#da5b09"></path><path d="M0 374L114 360L229 387L343 354L457 359L571 404L686 392L800 407L800 481L686 481L571 481L457 481L343 481L229 481L114 481L0 481Z" fill="#be4407"></path><path d="M0 391L114 411L229 420L343 431L457 397L571 397L686 392L800 397L800 481L686 481L571 481L457 481L343 481L229 481L114 481L0 481Z" fill="#a32d04"></path><path d="M0 440L114 444L229 458L343 430L457 456L571 456L686 426L800 441L800 481L686 481L571 481L457 481L343 481L229 481L114 481L0 481Z" fill="#871400"></path></svg>