<svg id="visual" viewBox="0 0 800 480" width="800" height="480" xmlns="http://www.w3.org/2000/svg" xmlns:xlink="http://www.w3.org/1999/xlink" version="1.1"><g stroke-width="1" stroke-linejoin="bevel"><path d="M422 250L433 314L495.7 285Z" fill="#205a7a" stroke="#205a7a"></path><path d="M495.7 285L509.3 266L422 250Z" fill="#19435d" stroke="#19435d"></path><path d="M386 368L409.7 354L334.3 238Z" fill="#1d4e6b" stroke="#1d4e6b"></path><path d="M497.7 394L554 317L495.7 285Z" fill="#112e42" stroke="#112e42"></path><path d="M509.3 266L483.3 183L422 250Z" fill="#277297" stroke="#277297"></path><path d="M497.7 394L495.7 285L433 314Z" fill="#19435d" stroke="#19435d"></path><path d="M495.7 285L554 317L509.3 266Z" fill="#297ea6" stroke="#297ea6"></path><path d="M509.3 266L562 218L483.3 183Z" fill="#277297" stroke="#277297"></path><path d="M334.3 238L409.7 354L433 314Z" fill="#297ea6" stroke="#297ea6"></path><path d="M409.7 354L497.7 394L433 314Z" fill="#19435d" stroke="#19435d"></path><path d="M571.3 224L562 218L509.3 266Z" fill="#112e42" stroke="#112e42"></path><path d="M453.7 414L497.7 394L409.7 354Z" fill="#277297" stroke="#277297"></path><path d="M349 129L334.3 238L422 250Z" fill="#0c2435" stroke="#0c2435"></path><path d="M422 250L334.3 238L433 314Z" fill="#1d4e6b" stroke="#1d4e6b"></path><path d="M554 317L571.3 224L509.3 266Z" fill="#246688" stroke="#246688"></path><path d="M386 368L453.7 414L409.7 354Z" fill="#205a7a" stroke="#205a7a"></path><path d="M536.3 402L580.3 350L554 317Z" fill="#19435d" stroke="#19435d"></path><path d="M554 317L613.7 272L571.3 224Z" fill="#112e42" stroke="#112e42"></path><path d="M481.3 98L436.7 130L483.3 183Z" fill="#15384f" stroke="#15384f"></path><path d="M483.3 183L436.7 130L422 250Z" fill="#081a28" stroke="#081a28"></path><path d="M481.3 98L483.3 183L569.3 123Z" fill="#00101c" stroke="#00101c"></path><path d="M557.3 480L536.3 402L497.7 394Z" fill="#246688" stroke="#246688"></path><path d="M497.7 394L536.3 402L554 317Z" fill="#112e42" stroke="#112e42"></path><path d="M291.3 141L298.7 253L334.3 238Z" fill="#1d4e6b" stroke="#1d4e6b"></path><path d="M276.3 329L328.3 379L386 368Z" fill="#277297" stroke="#277297"></path><path d="M580.3 350L613.7 272L554 317Z" fill="#277297" stroke="#277297"></path><path d="M276.3 329L386 368L334.3 238Z" fill="#0c2435" stroke="#0c2435"></path><path d="M385.3 463L425 470L453.7 414Z" fill="#19435d" stroke="#19435d"></path><path d="M643 351L624.7 260L613.7 272Z" fill="#0c2435" stroke="#0c2435"></path><path d="M613.7 272L624.7 260L571.3 224Z" fill="#00101c" stroke="#00101c"></path><path d="M569.3 123L483.3 183L562 218Z" fill="#0c2435" stroke="#0c2435"></path><path d="M569.3 123L562 218L571.3 224Z" fill="#246688" stroke="#246688"></path><path d="M422.7 96L349 129L436.7 130Z" fill="#246688" stroke="#246688"></path><path d="M436.7 130L349 129L422 250Z" fill="#297ea6" stroke="#297ea6"></path><path d="M481.3 98L422.7 96L436.7 130Z" fill="#19435d" stroke="#19435d"></path><path d="M298.7 253L276.3 329L334.3 238Z" fill="#246688" stroke="#246688"></path><path d="M422.7 96L346 122L349 129Z" fill="#205a7a" stroke="#205a7a"></path><path d="M349 129L291.3 141L334.3 238Z" fill="#205a7a" stroke="#205a7a"></path><path d="M654 197L569.3 123L571.3 224Z" fill="#112e42" stroke="#112e42"></path><path d="M385.3 463L453.7 414L386 368Z" fill="#1d4e6b" stroke="#1d4e6b"></path><path d="M453.7 414L557.3 480L497.7 394Z" fill="#1d4e6b" stroke="#1d4e6b"></path><path d="M276.3 329L277.7 360L328.3 379Z" fill="#19435d" stroke="#19435d"></path><path d="M328.3 379L385.3 463L386 368Z" fill="#277297" stroke="#277297"></path><path d="M367.3 480L385.3 463L328.3 379Z" fill="#112e42" stroke="#112e42"></path><path d="M625 392L643 351L580.3 350Z" fill="#00101c" stroke="#00101c"></path><path d="M580.3 350L643 351L613.7 272Z" fill="#112e42" stroke="#112e42"></path><path d="M625 392L580.3 350L614.7 420Z" fill="#277297" stroke="#277297"></path><path d="M435.7 480L436 480L425 470Z" fill="#297ea6" stroke="#297ea6"></path><path d="M425 470L436 480L453.7 414Z" fill="#081a28" stroke="#081a28"></path><path d="M367.3 480L435.7 480L425 470Z" fill="#00101c" stroke="#00101c"></path><path d="M614.7 420L580.3 350L536.3 402Z" fill="#205a7a" stroke="#205a7a"></path><path d="M346 122L291.3 141L349 129Z" fill="#0c2435" stroke="#0c2435"></path><path d="M298.7 253L215 257L276.3 329Z" fill="#112e42" stroke="#112e42"></path><path d="M557.3 480L614.7 420L536.3 402Z" fill="#15384f" stroke="#15384f"></path><path d="M625 392L654.7 369L643 351Z" fill="#277297" stroke="#277297"></path><path d="M712.3 255L654 197L624.7 260Z" fill="#19435d" stroke="#19435d"></path><path d="M624.7 260L654 197L571.3 224Z" fill="#0c2435" stroke="#0c2435"></path><path d="M251.7 480L367.3 480L328.3 379Z" fill="#1d4e6b" stroke="#1d4e6b"></path><path d="M385.3 463L367.3 480L425 470Z" fill="#246688" stroke="#246688"></path><path d="M614.7 420L654.7 369L625 392Z" fill="#277297" stroke="#277297"></path><path d="M643 351L712.3 255L624.7 260Z" fill="#1d4e6b" stroke="#1d4e6b"></path><path d="M177.3 358L261.7 387L277.7 360Z" fill="#1d4e6b" stroke="#1d4e6b"></path><path d="M277.7 360L261.7 387L328.3 379Z" fill="#205a7a" stroke="#205a7a"></path><path d="M177.3 358L277.7 360L276.3 329Z" fill="#112e42" stroke="#112e42"></path><path d="M346 122L332.3 92L291.3 141Z" fill="#205a7a" stroke="#205a7a"></path><path d="M422.7 96L332.3 92L346 122Z" fill="#00101c" stroke="#00101c"></path><path d="M310.7 63L332.3 92L358.3 0Z" fill="#277297" stroke="#277297"></path><path d="M291.3 141L236.7 214L298.7 253Z" fill="#297ea6" stroke="#297ea6"></path><path d="M436 480L557.3 480L453.7 414Z" fill="#15384f" stroke="#15384f"></path><path d="M236.7 214L215 257L298.7 253Z" fill="#081a28" stroke="#081a28"></path><path d="M704.7 134L656.7 145L654 197Z" fill="#19435d" stroke="#19435d"></path><path d="M654 197L656.7 145L569.3 123Z" fill="#1d4e6b" stroke="#1d4e6b"></path><path d="M477.7 0L457.7 33L481.3 98Z" fill="#1d4e6b" stroke="#1d4e6b"></path><path d="M291.3 141L230.7 179L236.7 214Z" fill="#297ea6" stroke="#297ea6"></path><path d="M236.7 214L221 192L215 257Z" fill="#15384f" stroke="#15384f"></path><path d="M195 148L230.7 179L291.3 141Z" fill="#15384f" stroke="#15384f"></path><path d="M477.7 0L481.3 98L565 0Z" fill="#246688" stroke="#246688"></path><path d="M481.3 98L457.7 33L422.7 96Z" fill="#081a28" stroke="#081a28"></path><path d="M230.7 179L221 192L236.7 214Z" fill="#081a28" stroke="#081a28"></path><path d="M557.3 480L608.7 480L614.7 420Z" fill="#19435d" stroke="#19435d"></path><path d="M614.7 420L750.3 402L654.7 369Z" fill="#19435d" stroke="#19435d"></path><path d="M395 0L332.3 92L422.7 96Z" fill="#205a7a" stroke="#205a7a"></path><path d="M332.3 92L310.7 63L291.3 141Z" fill="#081a28" stroke="#081a28"></path><path d="M230.7 179L195 148L221 192Z" fill="#246688" stroke="#246688"></path><path d="M748.3 287L643 351L654.7 369Z" fill="#081a28" stroke="#081a28"></path><path d="M748.3 287L712.3 255L643 351Z" fill="#1d4e6b" stroke="#1d4e6b"></path><path d="M608.7 480L621 480L614.7 420Z" fill="#277297" stroke="#277297"></path><path d="M477.7 0L430 3L457.7 33Z" fill="#297ea6" stroke="#297ea6"></path><path d="M457.7 33L430 3L422.7 96Z" fill="#19435d" stroke="#19435d"></path><path d="M704.7 134L668.7 104L656.7 145Z" fill="#0c2435" stroke="#0c2435"></path><path d="M656.7 145L641 72L569.3 123Z" fill="#246688" stroke="#246688"></path><path d="M668.7 104L641 72L656.7 145Z" fill="#0c2435" stroke="#0c2435"></path><path d="M565 0L481.3 98L569.3 123Z" fill="#00101c" stroke="#00101c"></path><path d="M477.7 0L395 0L430 3Z" fill="#246688" stroke="#246688"></path><path d="M430 3L395 0L422.7 96Z" fill="#297ea6" stroke="#297ea6"></path><path d="M215 257L175 337L276.3 329Z" fill="#205a7a" stroke="#205a7a"></path><path d="M261.7 387L251.7 480L328.3 379Z" fill="#205a7a" stroke="#205a7a"></path><path d="M168 285L175 337L215 257Z" fill="#0c2435" stroke="#0c2435"></path><path d="M116.7 245L168 285L215 257Z" fill="#297ea6" stroke="#297ea6"></path><path d="M204 451L251.7 480L261.7 387Z" fill="#19435d" stroke="#19435d"></path><path d="M96.7 347L177.3 358L175 337Z" fill="#0c2435" stroke="#0c2435"></path><path d="M175 337L177.3 358L276.3 329Z" fill="#15384f" stroke="#15384f"></path><path d="M766.3 47L628.7 0L641 72Z" fill="#112e42" stroke="#112e42"></path><path d="M712.3 255L704.7 134L654 197Z" fill="#1d4e6b" stroke="#1d4e6b"></path><path d="M238 75L195 148L291.3 141Z" fill="#081a28" stroke="#081a28"></path><path d="M221 192L116.7 245L215 257Z" fill="#297ea6" stroke="#297ea6"></path><path d="M238 75L291.3 141L310.7 63Z" fill="#0c2435" stroke="#0c2435"></path><path d="M395 0L358.3 0L332.3 92Z" fill="#205a7a" stroke="#205a7a"></path><path d="M800 184L708.3 130L704.7 134Z" fill="#277297" stroke="#277297"></path><path d="M704.7 134L708.3 130L668.7 104Z" fill="#00101c" stroke="#00101c"></path><path d="M774.3 304L748.3 287L750.3 402Z" fill="#112e42" stroke="#112e42"></path><path d="M712.3 255L800 184L704.7 134Z" fill="#1d4e6b" stroke="#1d4e6b"></path><path d="M628.7 0L605 23L641 72Z" fill="#205a7a" stroke="#205a7a"></path><path d="M641 72L605 23L569.3 123Z" fill="#297ea6" stroke="#297ea6"></path><path d="M259.7 42L238 75L310.7 63Z" fill="#1d4e6b" stroke="#1d4e6b"></path><path d="M605 23L565 0L569.3 123Z" fill="#1d4e6b" stroke="#1d4e6b"></path><path d="M177.3 358L204 451L261.7 387Z" fill="#297ea6" stroke="#297ea6"></path><path d="M278.3 18L259.7 42L310.7 63Z" fill="#297ea6" stroke="#297ea6"></path><path d="M628.7 0L585.3 0L605 23Z" fill="#112e42" stroke="#112e42"></path><path d="M605 23L585.3 0L565 0Z" fill="#19435d" stroke="#19435d"></path><path d="M358.3 0L278.3 18L310.7 63Z" fill="#246688" stroke="#246688"></path><path d="M750.3 402L748.3 287L654.7 369Z" fill="#0c2435" stroke="#0c2435"></path><path d="M748.3 287L800 244L712.3 255Z" fill="#081a28" stroke="#081a28"></path><path d="M621 480L750.3 402L614.7 420Z" fill="#19435d" stroke="#19435d"></path><path d="M766.3 47L641 72L668.7 104Z" fill="#246688" stroke="#246688"></path><path d="M358.3 0L277.7 0L278.3 18Z" fill="#15384f" stroke="#15384f"></path><path d="M278.3 18L221 0L259.7 42Z" fill="#19435d" stroke="#19435d"></path><path d="M259.7 42L221 0L238 75Z" fill="#277297" stroke="#277297"></path><path d="M103.3 188L221 192L195 148Z" fill="#277297" stroke="#277297"></path><path d="M165.3 480L189 480L204 451Z" fill="#277297" stroke="#277297"></path><path d="M204 451L189 480L251.7 480Z" fill="#246688" stroke="#246688"></path><path d="M165.3 480L204 451L98.3 421Z" fill="#205a7a" stroke="#205a7a"></path><path d="M103.3 188L195 148L103.3 172Z" fill="#246688" stroke="#246688"></path><path d="M103.3 188L116.7 245L221 192Z" fill="#277297" stroke="#277297"></path><path d="M168 285L99.3 330L175 337Z" fill="#00101c" stroke="#00101c"></path><path d="M750.3 402L800 308L774.3 304Z" fill="#1d4e6b" stroke="#1d4e6b"></path><path d="M774.3 304L800 244L748.3 287Z" fill="#246688" stroke="#246688"></path><path d="M800 308L800 244L774.3 304Z" fill="#15384f" stroke="#15384f"></path><path d="M708.3 130L753.3 90L668.7 104Z" fill="#297ea6" stroke="#297ea6"></path><path d="M800 244L800 229L712.3 255Z" fill="#19435d" stroke="#19435d"></path><path d="M98.3 421L204 451L177.3 358Z" fill="#081a28" stroke="#081a28"></path><path d="M800 111L753.3 90L708.3 130Z" fill="#277297" stroke="#277297"></path><path d="M800 229L800 184L712.3 255Z" fill="#1d4e6b" stroke="#1d4e6b"></path><path d="M116.7 245L99.3 330L168 285Z" fill="#1d4e6b" stroke="#1d4e6b"></path><path d="M117.3 23L195 148L238 75Z" fill="#112e42" stroke="#112e42"></path><path d="M116.7 245L65.7 239L99.3 330Z" fill="#246688" stroke="#246688"></path><path d="M277.7 0L221 0L278.3 18Z" fill="#112e42" stroke="#112e42"></path><path d="M25.7 399L96.7 347L0 389Z" fill="#297ea6" stroke="#297ea6"></path><path d="M99.3 330L96.7 347L175 337Z" fill="#205a7a" stroke="#205a7a"></path><path d="M85.7 64L103.3 172L195 148Z" fill="#0c2435" stroke="#0c2435"></path><path d="M103.3 188L82.7 223L116.7 245Z" fill="#1d4e6b" stroke="#1d4e6b"></path><path d="M85.7 64L99.3 174L103.3 172Z" fill="#297ea6" stroke="#297ea6"></path><path d="M103.3 172L99.3 174L103.3 188Z" fill="#0c2435" stroke="#0c2435"></path><path d="M621 480L767.3 480L750.3 402Z" fill="#277297" stroke="#277297"></path><path d="M750.3 402L800 429L800 308Z" fill="#205a7a" stroke="#205a7a"></path><path d="M99.3 174L82.7 223L103.3 188Z" fill="#00101c" stroke="#00101c"></path><path d="M767.3 480L800 429L750.3 402Z" fill="#112e42" stroke="#112e42"></path><path d="M25.7 399L98.3 421L96.7 347Z" fill="#081a28" stroke="#081a28"></path><path d="M96.7 347L98.3 421L177.3 358Z" fill="#112e42" stroke="#112e42"></path><path d="M800 184L800 111L708.3 130Z" fill="#15384f" stroke="#15384f"></path><path d="M753.3 90L766.3 47L668.7 104Z" fill="#112e42" stroke="#112e42"></path><path d="M800 56L766.3 47L753.3 90Z" fill="#00101c" stroke="#00101c"></path><path d="M0 165L65.7 239L82.7 223Z" fill="#277297" stroke="#277297"></path><path d="M82.7 223L65.7 239L116.7 245Z" fill="#1d4e6b" stroke="#1d4e6b"></path><path d="M767.3 480L800 480L800 429Z" fill="#112e42" stroke="#112e42"></path><path d="M800 111L800 56L753.3 90Z" fill="#0c2435" stroke="#0c2435"></path><path d="M766.3 47L765.3 0L628.7 0Z" fill="#081a28" stroke="#081a28"></path><path d="M221 0L143.3 0L238 75Z" fill="#297ea6" stroke="#297ea6"></path><path d="M0 267L0 281L65.7 239Z" fill="#15384f" stroke="#15384f"></path><path d="M800 0L765.3 0L766.3 47Z" fill="#081a28" stroke="#081a28"></path><path d="M143.3 0L117.3 23L238 75Z" fill="#0c2435" stroke="#0c2435"></path><path d="M117.3 23L85.7 64L195 148Z" fill="#081a28" stroke="#081a28"></path><path d="M800 56L800 0L766.3 47Z" fill="#205a7a" stroke="#205a7a"></path><path d="M0 281L96.7 347L99.3 330Z" fill="#112e42" stroke="#112e42"></path><path d="M98.3 421L44.7 480L165.3 480Z" fill="#246688" stroke="#246688"></path><path d="M0 281L99.3 330L65.7 239Z" fill="#112e42" stroke="#112e42"></path><path d="M0 267L65.7 239L0 165Z" fill="#246688" stroke="#246688"></path><path d="M0 165L82.7 223L99.3 174Z" fill="#081a28" stroke="#081a28"></path><path d="M25.7 399L44.7 480L98.3 421Z" fill="#15384f" stroke="#15384f"></path><path d="M0 281L0 389L96.7 347Z" fill="#15384f" stroke="#15384f"></path><path d="M25.7 399L0 446L44.7 480Z" fill="#277297" stroke="#277297"></path><path d="M0 140L0 165L99.3 174Z" fill="#277297" stroke="#277297"></path><path d="M0 140L99.3 174L0 112Z" fill="#19435d" stroke="#19435d"></path><path d="M71.7 0L39.7 60L85.7 64Z" fill="#277297" stroke="#277297"></path><path d="M71.7 0L85.7 64L117.3 23Z" fill="#00101c" stroke="#00101c"></path><path d="M143.3 0L71.7 0L117.3 23Z" fill="#00101c" stroke="#00101c"></path><path d="M0 112L99.3 174L85.7 64Z" fill="#205a7a" stroke="#205a7a"></path><path d="M0 0L0 112L39.7 60Z" fill="#15384f" stroke="#15384f"></path><path d="M39.7 60L0 112L85.7 64Z" fill="#1d4e6b" stroke="#1d4e6b"></path><path d="M0 389L0 446L25.7 399Z" fill="#1d4e6b" stroke="#1d4e6b"></path><path d="M0 446L0 480L44.7 480Z" fill="#081a28" stroke="#081a28"></path><path d="M71.7 0L0 0L39.7 60Z" fill="#205a7a" stroke="#205a7a"></path></g></svg>