<svg id="visual" viewBox="0 0 800 480" width="800" height="480" xmlns="http://www.w3.org/2000/svg" xmlns:xlink="http://www.w3.org/1999/xlink" version="1.1"><path d="M0 174L19 171.5C38 169 76 164 114.2 157.5C152.3 151 190.7 143 228.8 147.8C267 152.7 305 170.3 343 178.3C381 186.3 419 184.7 457 179.2C495 173.7 533 164.3 571.2 155.7C609.3 147 647.7 139 685.8 135.7C724 132.3 762 133.7 781 134.3L800 135L800 0L781 0C762 0 724 0 685.8 0C647.7 0 609.3 0 571.2 0C533 0 495 0 457 0C419 0 381 0 343 0C305 0 267 0 228.8 0C190.7 0 152.3 0 114.2 0C76 0 38 0 19 0L0 0Z" fill="#fcfcfc"></path><path d="M0 270L19 265.2C38 260.3 76 250.7 114.2 241C152.3 231.3 190.7 221.7 228.8 222.5C267 223.3 305 234.7 343 245.2C381 255.7 419 265.3 457 262.2C495 259 533 243 571.2 232.5C609.3 222 647.7 217 685.8 210.5C724 204 762 196 781 192L800 188L800 133L781 132.3C762 131.7 724 130.3 685.8 133.7C647.7 137 609.3 145 571.2 153.7C533 162.3 495 171.7 457 177.2C419 182.7 381 184.3 343 176.3C305 168.3 267 150.7 228.8 145.8C190.7 141 152.3 149 114.2 155.5C76 162 38 167 19 169.5L0 172Z" fill="#fffac2"></path><path d="M0 390L19 381.2C38 372.3 76 354.7 114.2 340.2C152.3 325.7 190.7 314.3 228.8 316.7C267 319 305 335 343 343C381 351 419 351 457 350.3C495 349.7 533 348.3 571.2 342.8C609.3 337.3 647.7 327.7 685.8 322C724 316.3 762 314.7 781 313.8L800 313L800 186L781 190C762 194 724 202 685.8 208.5C647.7 215 609.3 220 571.2 230.5C533 241 495 257 457 260.2C419 263.3 381 253.7 343 243.2C305 232.7 267 221.3 228.8 220.5C190.7 219.7 152.3 229.3 114.2 239C76 248.7 38 258.3 19 263.2L0 268Z" fill="#fff887"></path><path d="M0 481L19 481C38 481 76 481 114.2 481C152.3 481 190.7 481 228.8 481C267 481 305 481 343 481C381 481 419 481 457 481C495 481 533 481 571.2 481C609.3 481 647.7 481 685.8 481C724 481 762 481 781 481L800 481L800 311L781 311.8C762 312.7 724 314.3 685.8 320C647.7 325.7 609.3 335.3 571.2 340.8C533 346.3 495 347.7 457 348.3C419 349 381 349 343 341C305 333 267 317 228.8 314.7C190.7 312.3 152.3 323.7 114.2 338.2C76 352.7 38 370.3 19 379.2L0 388Z" fill="#fcf73d"></path></svg>