<svg id="visual" viewBox="0 0 800 480" width="800" height="480" xmlns="http://www.w3.org/2000/svg" xmlns:xlink="http://www.w3.org/1999/xlink" version="1.1"><g fill="#002eff"><path d="M0 -94.4L21.2 -29.2L89.8 -29.2L34.3 11.1L55.5 76.4L0 36.1L-55.5 76.4L-34.3 11.1L-89.8 -29.2L-21.2 -29.2Z" transform="translate(516 279)"></path><path d="M0 -52.9L11.9 -16.3L50.3 -16.3L19.2 6.2L31.1 42.8L0 20.2L-31.1 42.8L-19.2 6.2L-50.3 -16.3L-11.9 -16.3Z" transform="translate(135 426)"></path><path d="M0 -65.1L14.6 -20.1L61.9 -20.1L23.7 7.7L38.3 52.7L0 24.9L-38.3 52.7L-23.7 7.7L-61.9 -20.1L-14.6 -20.1Z" transform="translate(726 45)"></path><path d="M0 -78.3L17.6 -24.2L74.5 -24.2L28.5 9.2L46 63.4L0 29.9L-46 63.4L-28.5 9.2L-74.5 -24.2L-17.6 -24.2Z" transform="translate(306 304)"></path><path d="M0 -70.8L15.9 -21.9L67.3 -21.9L25.7 8.4L41.6 57.3L0 27L-41.6 57.3L-25.7 8.4L-67.3 -21.9L-15.9 -21.9Z" transform="translate(774 297)"></path></g></svg>