<svg id="visual" viewBox="0 0 800 480" width="800" height="480" xmlns="http://www.w3.org/2000/svg" xmlns:xlink="http://www.w3.org/1999/xlink" version="1.1"><path d="M189 0L198 6.7C207 13.3 225 26.7 236.8 40C248.7 53.3 254.3 66.7 250.5 80C246.7 93.3 233.3 106.7 220.8 120C208.3 133.3 196.7 146.7 186.7 160C176.7 173.3 168.3 186.7 168.7 200C169 213.3 178 226.7 181.8 240C185.7 253.3 184.3 266.7 186.5 280C188.7 293.3 194.3 306.7 205.2 320C216 333.3 232 346.7 239.7 360C247.3 373.3 246.7 386.7 239 400C231.3 413.3 216.7 426.7 212.8 440C209 453.3 216 466.7 219.5 473.3L223 480L0 480L0 473.3C0 466.7 0 453.3 0 440C0 426.7 0 413.3 0 400C0 386.7 0 373.3 0 360C0 346.7 0 333.3 0 320C0 306.7 0 293.3 0 280C0 266.7 0 253.3 0 240C0 226.7 0 213.3 0 200C0 186.7 0 173.3 0 160C0 146.7 0 133.3 0 120C0 106.7 0 93.3 0 80C0 66.7 0 53.3 0 40C0 26.7 0 13.3 0 6.7L0 0Z" fill="#0066FF" stroke-linecap="round" stroke-linejoin="miter"></path></svg>